<?xml version="1.0" encoding="UTF-8" standalone="no"?>
<!-- Created with Inkscape (http://www.inkscape.org/) -->

<svg
   xmlns:dc="http://purl.org/dc/elements/1.1/"
   xmlns:cc="http://creativecommons.org/ns#"
   xmlns:rdf="http://www.w3.org/1999/02/22-rdf-syntax-ns#"
   xmlns:svg="http://www.w3.org/2000/svg"
   xmlns="http://www.w3.org/2000/svg"
   xmlns:sodipodi="http://sodipodi.sourceforge.net/DTD/sodipodi-0.dtd"
   xmlns:inkscape="http://www.inkscape.org/namespaces/inkscape"
   width="1133.8583"
   height="1133.8583"
   viewBox="0 0 300 300"
   version="1.1"
   id="svg8"
   inkscape:version="0.92.4 (5da689c313, 2019-01-14)"
   sodipodi:docname="404.svg">
  <defs
     id="defs2" />
  <sodipodi:namedview
     id="base"
     pagecolor="#ffffff"
     bordercolor="#666666"
     borderopacity="1.0"
     inkscape:pageopacity="0.0"
     inkscape:pageshadow="2"
     inkscape:zoom="0.175"
     inkscape:cx="-163.78084"
     inkscape:cy="540.48281"
     inkscape:document-units="mm"
     inkscape:current-layer="layer2"
     showgrid="false"
     units="px"
     inkscape:window-width="1920"
     inkscape:window-height="1001"
     inkscape:window-x="-9"
     inkscape:window-y="-9"
     inkscape:window-maximized="1" />
  <metadata
     id="metadata5">
    <rdf:RDF>
      <cc:Work
         rdf:about="">
        <dc:format>image/svg+xml</dc:format>
        <dc:type
           rdf:resource="http://purl.org/dc/dcmitype/StillImage" />
        <dc:title></dc:title>
      </cc:Work>
    </rdf:RDF>
  </metadata>
  <g
     inkscape:label="Livello 1"
     inkscape:groupmode="layer"
     id="layer1"
     transform="translate(0,3)"
     style="display:inline">
    <circle
       style="fill:#00a7ff;fill-opacity:1;stroke:#00a9ff;stroke-width:0.31879601;stroke-opacity:1"
       id="path10"
       cx="153.45831"
       cy="148.07739"
       r="142.09193" />
    <circle
       style="fill:#e6e6e6;fill-opacity:1;stroke-width:0.26458332"
       id="path893"
       cx="159.37254"
       cy="-78.053215"
       r="64.011047"
       transform="scale(1,-1)" />
    <path
       style="fill:#ff9955"
       d="m 95.914239,179.16083 -19.858947,2.24379 -15.641649,12.27818 c 0,0 2.672696,7.21627 -7.848091,7.53497 -1.322303,0.0401 14.972657,4.54127 6.641446,10.34292 8.239497,-2.48371 9.260416,-1.91118 9.260416,-1.91118 l 2.681517,7.49237 c 0,0 0,-0.94494 0,0 0,0.94494 11.994703,6.83043 6.336186,8.79859 0.755954,1.7009 6.986997,1.29605 9.254855,2.05201 2.267857,0.75595 5.486217,4.94055 5.486217,4.94055 1.511906,0.56697 1.485045,6.48489 1.674031,7.61882 0.188989,1.13393 4.203593,7.49466 5.148534,8.81758 0.944941,1.32292 4.327736,0.19456 8.296486,1.70646 3.96875,1.5119 -5.29167,0.56696 0,0 5.29167,-0.56697 5.32178,3.19936 9.10154,-1.33635 3.77977,-4.53571 1.81717,-3.24522 2.00616,-7.02498 0.18899,-3.77977 11.94885,-4.86784 12.13784,-7.70266 0.18898,-2.83482 0.94494,-3.59077 -0.18899,-6.23661 -1.0492,-2.61009 19.45686,-22.19804 -25.5134,-41.95535 -0.37798,-0.94494 20.78869,24.37946 20.78869,24.37946 l -20.78869,-24.37946 z"
       id="path896"
       inkscape:connector-curvature="0"
       sodipodi:nodetypes="cccscccsccccssccscccccc" />
    <circle
       style="fill:#ffffff;fill-opacity:1;stroke-width:0.07477355"
       id="path898"
       cx="218.35921"
       cy="195.17032"
       r="3.474504" />
    <circle
       style="display:inline;fill:#ffffff;fill-opacity:1;stroke-width:0.07477355"
       id="path898-2"
       cx="272.08038"
       cy="152.13992"
       r="3.474504" />
    <circle
       style="display:inline;fill:#ffffff;fill-opacity:1;stroke-width:0.07477355"
       id="path898-0"
       cx="234.12811"
       cy="155.8817"
       r="3.474504" />
    <circle
       style="display:inline;fill:#ffffff;fill-opacity:1;stroke-width:0.07477355"
       id="path898-8"
       cx="220.23009"
       cy="228.04446"
       r="3.474504" />
    <circle
       style="display:inline;fill:#ffffff;fill-opacity:1;stroke-width:0.07477355"
       id="path898-89"
       cx="153.94725"
       cy="238.2007"
       r="3.474504" />
    <circle
       style="display:inline;fill:#ffffff;fill-opacity:1;stroke-width:0.07477355"
       id="path898-7"
       cx="168.91434"
       cy="214.14645"
       r="3.474504" />
    <circle
       style="display:inline;fill:#ffffff;fill-opacity:1;stroke-width:0.07477355"
       id="path898-05"
       cx="167.84526"
       cy="261.18588"
       r="3.474504" />
    <circle
       style="display:inline;fill:#ffffff;fill-opacity:1;stroke-width:0.07477355"
       id="path898-6"
       cx="124.01306"
       cy="262.78949"
       r="3.474504" />
    <circle
       style="display:inline;fill:#ffffff;fill-opacity:1;stroke-width:0.07477355"
       id="path898-1"
       cx="237.33534"
       cy="243.5461"
       r="3.474504" />
    <circle
       style="display:inline;fill:#ffffff;fill-opacity:1;stroke-width:0.07477355"
       id="path898-9"
       cx="192.43407"
       cy="207.73198"
       r="3.474504" />
    <circle
       style="display:inline;fill:#ffffff;fill-opacity:1;stroke-width:0.07477355"
       id="path898-03"
       cx="194.57222"
       cy="253.1678"
       r="3.474504" />
    <circle
       style="display:inline;fill:#ffffff;fill-opacity:1;stroke-width:0.07477355"
       id="path898-96"
       cx="188.69229"
       cy="228.04446"
       r="3.474504" />
    <circle
       style="display:inline;fill:#ffffff;fill-opacity:1;stroke-width:0.07477355"
       id="path898-78"
       cx="248.02612"
       cy="96.013321"
       r="3.474504" />
    <circle
       style="display:inline;fill:#ffffff;fill-opacity:1;stroke-width:0.07477355"
       id="path898-79"
       cx="254.4406"
       cy="200.24843"
       r="3.474504" />
    <circle
       style="display:inline;fill:#ffffff;fill-opacity:1;stroke-width:0.07477355"
       id="path898-27"
       cx="261.38959"
       cy="156.95078"
       r="3.474504" />
    <circle
       style="display:inline;fill:#ffffff;fill-opacity:1;stroke-width:0.07477355"
       id="path898-3"
       cx="234.12811"
       cy="129.15474"
       r="3.474504" />
    <circle
       style="display:inline;fill:#ffffff;fill-opacity:1;stroke-width:0.07477355"
       id="path898-11"
       cx="184.41597"
       cy="172.45241"
       r="3.474504" />
    <circle
       style="display:inline;fill:#ffffff;fill-opacity:1;stroke-width:0.07477355"
       id="path898-62"
       cx="32.606884"
       cy="92.271545"
       r="3.474504" />
    <circle
       style="display:inline;fill:#ffffff;fill-opacity:1;stroke-width:0.07477355"
       id="path898-81"
       cx="55.057522"
       cy="147.32907"
       r="3.474504" />
    <circle
       style="display:inline;fill:#ffffff;fill-opacity:1;stroke-width:0.07477355"
       id="path898-91"
       cx="35.279579"
       cy="161.76163"
       r="3.474504" />
    <circle
       style="display:inline;fill:#ffffff;fill-opacity:1;stroke-width:0.07477355"
       id="path898-4"
       cx="37.952274"
       cy="119.53304"
       r="3.474504" />
    <circle
       style="display:inline;fill:#ffffff;fill-opacity:1;stroke-width:0.07477355"
       id="path898-07"
       cx="80.180855"
       cy="104.0314"
       r="3.474504" />
    <circle
       style="display:inline;fill:#ffffff;fill-opacity:1;stroke-width:0.07477355"
       id="path898-74"
       cx="82.319016"
       cy="127.55112"
       r="3.474504" />
    <circle
       style="display:inline;fill:#ffffff;fill-opacity:1;stroke-width:0.07477355"
       id="path898-06"
       cx="52.384827"
       cy="173.52148"
       r="3.474504" />
    <circle
       style="display:inline;fill:#ffffff;fill-opacity:1;stroke-width:0.07477355"
       id="path898-5"
       cx="59.333836"
       cy="238.2007"
       r="3.474504" />
    <circle
       style="display:inline;fill:#ffffff;fill-opacity:1;stroke-width:0.07477355"
       id="path898-12"
       cx="134.1693"
       cy="220.56091"
       r="3.474504" />
    <circle
       style="display:inline;fill:#ffffff;fill-opacity:1;stroke-width:0.07477355"
       id="path898-29"
       cx="85.526245"
       cy="53.250195"
       r="3.474504" />
    <circle
       style="display:inline;fill:#ffffff;fill-opacity:1;stroke-width:0.07477355"
       id="path898-066"
       cx="211.67746"
       cy="35.610405"
       r="3.474504" />
    <circle
       style="display:inline;fill:#ffffff;fill-opacity:1;stroke-width:0.07477355"
       id="path898-59"
       cx="256.57874"
       cy="79.977142"
       r="3.474504" />
    <circle
       style="display:inline;fill:#ffffff;fill-opacity:1;stroke-width:0.07477355"
       id="path898-88"
       cx="248.56065"
       cy="122.74027"
       r="3.474504" />
    <circle
       style="display:inline;fill:#ffffff;fill-opacity:1;stroke-width:0.07477355"
       id="path898-68"
       cx="209.00478"
       cy="163.89978"
       r="3.474504" />
    <circle
       style="display:inline;fill:#ffffff;fill-opacity:1;stroke-width:0.07477355"
       id="path898-85"
       cx="226.11002"
       cy="65.544594"
       r="3.474504" />
    <circle
       style="display:inline;fill:#ffffff;fill-opacity:1;stroke-width:0.07477355"
       id="path898-798"
       cx="101.02788"
       cy="31.868631"
       r="3.474504" />
    <circle
       style="display:inline;fill:#ffffff;fill-opacity:1;stroke-width:0.07477355"
       id="path898-960"
       cx="56.66114"
       cy="63.940975"
       r="3.474504" />
    <circle
       style="display:inline;fill:#ffffff;fill-opacity:1;stroke-width:0.07477355"
       id="path898-99"
       cx="256.04422"
       cy="177.26326"
       r="3.474504" />
    <circle
       style="display:inline;fill:#ffffff;fill-opacity:1;stroke-width:0.07477355"
       id="path898-69"
       cx="272.08038"
       cy="198.11028"
       r="3.474504" />
    <circle
       style="display:inline;fill:#ffffff;fill-opacity:1;stroke-width:0.07477355"
       id="path898-50"
       cx="180.13966"
       cy="273.48029"
       r="3.474504" />
    <circle
       style="display:inline;fill:#ffffff;fill-opacity:1;stroke-width:0.07477355"
       id="path898-09"
       cx="130.96207"
       cy="249.42603"
       r="3.474504" />
    <circle
       style="fill:#cccccc;fill-opacity:1;stroke:#640014;stroke-width:0.26458332;stroke-opacity:1"
       id="path1140"
       cx="118.02306"
       cy="53.488838"
       r="10.29985" />
    <circle
       style="fill:#cccccc;fill-opacity:1;stroke:#000018;stroke-width:0.26458332;stroke-opacity:1"
       id="path1142"
       cx="194.27975"
       cy="72.293159"
       r="22.867559" />
    <ellipse
       style="fill:#cccccc;fill-opacity:1;stroke:#000154;stroke-width:0.26458332;stroke-opacity:1"
       id="path1144"
       cx="142.60313"
       cy="95.471695"
       rx="13.902238"
       ry="13.918118" />
    <path
       style="display:inline;fill:#ffffff"
       d="m 80.032967,165.78911 20.803473,-8.79166 50.55539,-58.932169 4.73437,-6.621848 61.13246,45.416257 3.20723,17.37252 -4.7782,6.0352 -56.52149,51.30539 -11.36882,21.85258 z"
       id="path880"
       inkscape:connector-curvature="0" />
  </g>
  <g
     inkscape:groupmode="layer"
     id="layer2"
     inkscape:label="Livello 2">
    <path
       id="path869"
       d="m 226.06229,79.203207 c -1.26915,-0.802911 -2.58245,-1.470133 -2.87588,-1.490554 -0.31614,-0.0428 -0.51965,-0.109026 -0.43008,-0.199905 0.15676,-0.159064 -5.9484,-2.099858 -6.85139,-2.183515 -0.31615,-0.0428 -1.64822,-0.191045 -2.98032,-0.339264 -7.69941,-0.914026 -17.34447,0.509738 -26.70473,3.87154 -7.15513,2.578722 -9.4495,3.497794 -9.94216,3.997684 -0.22394,0.22723 -0.58357,0.41033 -0.80915,0.41197 -1.21782,0.054 -15.57357,8.25729 -17.99542,10.26013 -0.20155,0.2045 -0.56116,0.38761 -0.83154,0.43468 -0.22525,0.0467 -0.44919,0.274 -0.51542,0.47746 -0.0435,0.22593 3.25258,3.65353 9.22858,9.543157 l 9.29345,9.15917 -0.80559,3.99888 c -0.45747,2.2367 -0.87114,4.29262 -0.91397,4.60877 -0.69558,3.61456 -2.48101,12.47085 -2.52579,12.5163 -0.0225,0.0227 -0.41433,1.96568 -0.84875,4.2699 -0.4568,2.32694 -0.89352,4.31535 -1.00549,4.42896 -0.11191,0.11364 -0.15582,0.29437 -0.087,0.45183 0.0684,0.11237 -0.0827,1.03833 -0.27865,2.0098 l -0.37051,1.78489 1.32978,-0.16758 c 3.40318,-0.4534 5.0929,-0.75898 5.29445,-0.96347 0.13436,-0.13634 0.29214,-0.16001 0.40572,-0.0481 0.0909,0.0896 1.06007,-0.0302 2.11883,-0.24102 1.08116,-0.23345 2.25287,-0.42246 2.59075,-0.49259 0.33821,-0.025 5.81378,-0.89957 12.12287,-1.9381 l 11.49155,-1.88839 8.36019,8.01543 c 7.22441,6.94085 8.38228,7.94759 8.62795,7.6074 0.73671,-1.06565 3.61339,-5.66614 5.17309,-8.3395 0.95802,-1.65381 1.82713,-3.1265 1.91636,-3.26251 0.11156,-0.15876 0.22231,-0.4528 0.28851,-0.65632 0.0435,-0.22591 0.26577,-0.67871 0.51112,-1.06401 1.33904,-1.99497 5.22057,-11.11466 7.03127,-16.49699 1.54525,-4.65848 1.58906,-4.83928 2.6555,-10.19362 1.02265,-5.17354 1.16956,-6.6861 1.15616,-11.6265 -0.0198,-12.024017 -4.37057,-20.880777 -12.82435,-26.256072 z m -74.67046,21.862073 c -0.60594,0.43304 -1.32421,0.93458 -1.52607,1.09396 -1.09961,0.79758 -2.62505,1.98178 -4.03751,3.1877 -0.89706,0.72843 -1.79414,1.45686 -2.01874,1.59387 -2.134,1.25629 -20.09699,19.07359 -23.00262,22.79449 -0.73738,0.97541 -1.78825,2.26894 -2.30266,2.8818 -1.11805,1.3617 -2.21307,2.79092 -4.11196,5.35394 -0.78182,1.06599 -1.60843,2.17741 -1.80933,2.47214 -0.33526,0.43108 -1.3621,1.92747 -3.01334,4.42102 -0.2454,0.38526 -0.64713,0.97477 -0.89248,1.36006 -0.24531,0.38533 -0.60234,0.92931 -0.80323,1.22405 -0.29018,0.4307 -2.49697,4.07887 -3.65588,6.02742 -0.1337,0.22655 -0.73473,1.33635 -1.33542,2.49125 -0.57832,1.13219 -1.20173,2.26469 -1.33545,2.49125 -0.13371,0.22657 -0.26742,0.45315 -0.26709,0.49826 6.6e-4,0.0902 -0.0662,0.20355 -0.11033,0.3392 -0.0892,0.13603 -0.24501,0.4304 -0.33328,0.70176 -0.11095,0.249 -0.51112,1.06402 -0.889196,1.81122 -0.400795,0.72481 -0.59873,1.42561 -0.46239,1.55997 0.136332,0.13436 2.862756,-0.3141 6.038716,-0.99144 3.17594,-0.67735 8.33405,-1.77518 11.39737,-2.42913 3.08572,-0.67668 5.78875,-1.23777 5.99163,-1.26182 0.22524,-0.0467 2.83839,-0.56208 5.81148,-1.21538 2.97308,-0.6533 5.51872,-1.14557 5.65473,-1.05632 0.13567,0.0442 0.3382,-0.025 0.45017,-0.13864 0.0895,-0.0909 1.84616,-0.50974 3.85105,-0.90785 l 3.6719,-0.72606 0.28521,-1.10748 c 0.32934,-1.24317 0.74301,-3.29909 1.89279,-9.60152 0.43377,-2.39446 1.23739,-6.66404 1.75844,-9.4652 0.52103,-2.80116 0.93208,-5.218 0.86358,-5.33031 -0.0689,-0.1574 0.0197,-0.38364 0.17652,-0.54271 0.15676,-0.15905 0.2885,-0.65633 0.33034,-1.10781 0.0191,-0.47388 0.51676,-3.38768 1.10335,-6.48259 1.73865,-9.08153 3.73456,-20.0148 3.75431,-20.39848 0.0211,-0.20318 -0.49628,0.003 -1.12462,0.45938 z m 60.66774,62.7474 c -1.98217,0.4205 -3.80693,0.77217 -4.03218,0.81892 -0.22559,0.001 -3.5596,0.65758 -7.38892,1.45247 -3.82932,0.79488 -7.14094,1.42809 -7.36618,1.47484 -0.20288,0.024 -4.28017,0.84329 -9.05561,1.82554 -4.75305,0.95954 -8.76284,1.75574 -8.89818,1.75671 -0.13543,10e-4 -0.65337,0.11756 -1.17106,0.27925 -0.51771,0.16167 -1.32847,0.34806 -1.80237,0.32894 -0.47355,0.026 -0.92406,0.11952 -0.99124,0.18769 -0.0673,0.0682 -2.04935,0.48867 -4.45996,0.93484 -2.36549,0.44584 -4.52779,0.91276 -4.73001,1.02704 -0.44951,0.22887 -0.71298,1.2234 -2.08211,8.38468 -0.47855,2.43992 -0.89057,4.72142 -0.97851,5.03788 -0.0428,0.31615 -1.13068,5.82856 -2.39243,12.24461 -1.26174,6.41606 -2.58969,13.03563 -2.93849,14.70757 -0.37116,1.69466 -0.63168,3.09523 -0.58624,3.14002 0.0455,0.0448 1.12463,-0.45938 2.42841,-1.10053 1.28138,-0.61843 2.56276,-1.23686 2.81009,-1.35144 0.24736,-0.11457 0.58421,-0.32009 0.74162,-0.38891 0.15714,-0.11388 1.25801,-0.73107 2.44884,-1.39396 1.1681,-0.68528 2.35893,-1.34817 2.58351,-1.48516 0.20192,-0.15935 0.96559,-0.61614 1.68449,-1.02743 1.61729,-0.95926 2.26869,-1.34751 2.89672,-1.8484 0.29177,-0.20516 0.53876,-0.36487 0.58421,-0.32008 0.0227,0.0224 0.26975,-0.13728 0.56149,-0.34248 0.2691,-0.22752 2.62536,-1.93664 5.22865,-3.80547 4.42115,-3.16794 5.45324,-3.94247 7.98737,-6.01382 1.34563,-1.09263 3.78952,-3.16332 6.0757,-5.21033 1.05353,-0.93255 2.26442,-1.93402 2.6909,-2.2304 0.60628,-0.38792 0.67282,-0.54629 0.28882,-0.6112 -0.38431,-0.10995 -0.38464,-0.1551 0.11133,-0.20384 0.72122,-0.0955 10.59731,-10.07093 10.68197,-10.83859 0.0428,-0.31613 0.13241,-0.40702 0.31416,-0.22788 0.15906,0.15676 0.31648,0.0879 0.38268,-0.11558 0.0211,-0.20318 0.6244,-0.99716 1.27317,-1.74633 3.17668,-3.67775 6.19494,-7.42203 8.56249,-10.68781 0.73702,-1.02054 1.51884,-2.08651 1.74212,-2.40397 0.22329,-0.31745 0.44625,-0.68003 0.42287,-0.79266 -0.001,-0.13542 -1.62355,0.10199 -3.6281,0.54527 z m -75.84666,15.23817 c -0.383,0.0705 -5.60993,1.01087 -11.64798,2.09256 -6.03806,1.08168 -11.64799,2.09255 -12.50422,2.23415 -0.85623,0.14158 -2.07273,0.37603 -2.70338,0.51597 -1.08082,0.27857 -1.53363,0.0563 -9.2119,-4.15156 -4.41674,-2.42684 -8.154105,-4.49767 -8.312838,-4.6093 -1.291577,-0.78019 -11.596434,-6.32248 -11.799623,-6.34356 -0.135419,9.8e-4 2.455984,2.68924 5.750733,5.93639 3.272316,3.2699 10.271475,10.2575 15.543758,15.54311 19.74871,19.86648 46.13106,46.09155 46.46992,46.15677 0.20356,0.0661 -1.51314,-3.32779 -3.77677,-7.48481 -2.28603,-4.13429 -5.7839,-10.49315 -7.7729,-14.11075 -2.99502,-5.46013 -3.59106,-6.76424 -3.53077,-7.77986 0.0178,-0.65435 1.03059,-7.1814 2.21794,-14.52184 1.18734,-7.34045 2.11351,-13.37055 2.06773,-13.46046 -0.0682,-0.0673 -0.42909,-0.0645 -0.7897,-0.0168 z"
       inkscape:connector-curvature="0"
       style="display:inline;fill:#d53637;fill-opacity:1;stroke-width:0.31902987" />
  </g>
</svg>
