<?xml version="1.0" encoding="UTF-8" standalone="no"?>
<!-- Created with Inkscape (http://www.inkscape.org/) -->

<svg
   xmlns:dc="http://purl.org/dc/elements/1.1/"
   xmlns:cc="http://creativecommons.org/ns#"
   xmlns:rdf="http://www.w3.org/1999/02/22-rdf-syntax-ns#"
   xmlns:svg="http://www.w3.org/2000/svg"
   xmlns="http://www.w3.org/2000/svg"
   xmlns:sodipodi="http://sodipodi.sourceforge.net/DTD/sodipodi-0.dtd"
   xmlns:inkscape="http://www.inkscape.org/namespaces/inkscape"
   width="90"
   height="90"
   viewBox="0 0 23.812499 23.812501"
   version="1.1"
   id="svg8"
   inkscape:version="0.92.4 (5da689c313, 2019-01-14)"
   sodipodi:docname="decorazione.svg" fill ="#d1d0d0">
  <defs
     id="defs2" />
  <sodipodi:namedview
     id="base"
     pagecolor="#ffffff"
     bordercolor="#666666"
     borderopacity="1.0"
     inkscape:pageopacity="0.0"
     inkscape:pageshadow="2"
     inkscape:zoom="0.7"
     inkscape:cx="559.85297"
     inkscape:cy="507.24405"
     inkscape:document-units="mm"
     inkscape:current-layer="layer1"
     showgrid="false"
     units="px"
     inkscape:pagecheckerboard="false"
     inkscape:window-width="1920"
     inkscape:window-height="1001"
     inkscape:window-x="-9"
     inkscape:window-y="-9"
     inkscape:window-maximized="1" />
  <metadata
     id="metadata5">
    <rdf:RDF>
      <cc:Work
         rdf:about="">
        <dc:format>image/svg+xml</dc:format>
        <dc:type
           rdf:resource="http://purl.org/dc/dcmitype/StillImage" />
        <dc:title></dc:title>
      </cc:Work>
    </rdf:RDF>
  </metadata>
  <g
     inkscape:label="Livello 1"
     inkscape:groupmode="layer"
     id="layer1"
     transform="translate(0,-273.18744)">
    <rect
       id="rect16"
       width="0.96885198"
       height="2.5056517"
       x="6.0135641"
       y="289.14896"
       style="stroke-width:0.16729872" />
    <rect
       id="rect16-3"
       width="0.96885198"
       height="2.5056517"
       x="113.82723"
       y="262.00983"
       style="stroke-width:0.16729873"
       transform="rotate(22.06527)" />
    <rect
       id="rect16-3-7"
       width="0.96885198"
       height="2.5056517"
       x="172.71104"
       y="223.97121"
       style="stroke-width:0.16729875"
       transform="rotate(35.828251)" />
    <rect
       id="rect16-3-7-2"
       width="0.96885198"
       height="2.5056517"
       x="233.63962"
       y="155.36537"
       style="stroke-width:0.16729875"
       transform="rotate(53.982986)" />
    <rect
       id="rect16-3-7-2-9"
       width="0.96885198"
       height="2.5056517"
       x="266.83206"
       y="82.76889"
       style="stroke-width:0.16729875"
       transform="rotate(69.723627)"
       inkscape:transform-center-x="0.84325112"
       inkscape:transform-center-y="0.95982778" />
    <path
       id="path93"
       d="m 20.690145,277.65973 c -0.02264,-0.0389 -0.04744,-0.075 -0.05487,-0.0797 -0.0081,-0.006 -0.01261,-0.0101 -0.0088,-0.0113 0.0067,-0.002 -0.127346,-0.13895 -0.149914,-0.15386 -0.0081,-0.006 -0.04078,-0.0283 -0.07383,-0.0509 -0.190129,-0.13231 -0.464424,-0.23034 -0.758442,-0.27327 -0.224889,-0.0326 -0.298287,-0.0406 -0.318302,-0.0344 -0.0095,0.003 -0.02122,0.002 -0.02729,-8.3e-4 -0.03286,-0.0156 -0.526629,-0.001 -0.618632,0.0176 -0.0086,0.003 -0.02027,0.002 -0.02815,-5.6e-4 -0.0069,-0.002 -0.01569,7.5e-4 -0.02033,0.005 -0.0045,0.006 0.03396,0.14218 0.108717,0.38144 l 0.116274,0.37209 -0.07744,0.0941 c -0.04352,0.0525 -0.0833,0.10091 -0.08887,0.10865 -0.06913,0.0855 -0.240694,0.2939 -0.242516,0.29447 -9.16e-4,2.9e-4 -0.03853,0.046 -0.08239,0.10062 -0.04477,0.0549 -0.08422,0.10121 -0.08876,0.10264 -0.0048,10e-4 -0.0086,0.006 -0.0085,0.0111 2.69e-4,0.004 -0.01676,0.0262 -0.03558,0.0491 l -0.03491,0.0418 0.03738,0.0143 c 0.09607,0.0359 0.144952,0.0516 0.153126,0.049 0.0057,-0.002 0.01044,-1.5e-4 0.01194,0.005 0.0012,0.004 0.02841,0.0141 0.0593,0.0235 0.03175,0.009 0.06529,0.0205 0.07523,0.0235 0.0097,0.004 0.165913,0.058 0.34684,0.11929 l 0.329493,0.11173 0.107933,0.32876 c 0.09313,0.28446 0.109554,0.32725 0.120484,0.32185 0.03425,-0.0181 0.17491,-0.0985 0.253584,-0.14715 0.04851,-0.0302 0.09213,-0.0567 0.09638,-0.0591 0.0054,-0.003 0.01214,-0.009 0.01669,-0.0136 0.0045,-0.006 0.01639,-0.0146 0.02846,-0.0209 0.0633,-0.0338 0.293852,-0.21964 0.417238,-0.33609 0.106216,-0.10111 0.109921,-0.10521 0.213283,-0.23141 0.09968,-0.12202 0.12481,-0.15983 0.193897,-0.29028 0.168476,-0.31727 0.178259,-0.61191 0.03093,-0.87244 z m -2.275857,-0.47314 c -0.02208,0.003 -0.04808,0.006 -0.05573,0.007 -0.04023,0.005 -0.09702,0.0154 -0.151231,0.0273 -0.03391,0.006 -0.06781,0.013 -0.07576,0.0134 -0.07392,0.003 -0.797907,0.22038 -0.926823,0.27759 -0.03303,0.0156 -0.07914,0.0344 -0.101198,0.0436 -0.04848,0.0205 -0.09757,0.0425 -0.183662,0.0834 -0.0355,0.0175 -0.07306,0.0348 -0.0824,0.0397 -0.01485,0.007 -0.06301,0.0317 -0.141583,0.0742 -0.01189,0.007 -0.03063,0.017 -0.04271,0.0229 -0.01189,0.007 -0.02882,0.0164 -0.03853,0.0205 -0.0136,0.007 -0.123138,0.0725 -0.181094,0.10752 -0.007,0.004 -0.0381,0.0249 -0.07021,0.0469 -0.03116,0.0217 -0.06353,0.0428 -0.07021,0.0469 -0.007,0.004 -0.0133,0.008 -0.01396,0.01 -0.0013,0.003 -0.0048,0.005 -0.008,0.008 -0.0045,0.002 -0.01244,0.008 -0.0185,0.0142 -0.0067,0.005 -0.02849,0.0208 -0.04892,0.0352 -0.02061,0.0138 -0.03581,0.0292 -0.03412,0.0347 0.0018,0.006 0.07987,0.032 0.173129,0.0587 0.09324,0.0268 0.244667,0.0703 0.33462,0.0961 0.09086,0.0256 0.170007,0.0487 0.175693,0.0509 0.0069,0.002 0.08275,0.0251 0.170276,0.0496 0.0875,0.0245 0.161616,0.0474 0.163923,0.0516 0.0031,0.003 0.0097,0.004 0.01391,0.003 0.0038,-10e-4 0.05587,0.0125 0.114298,0.0302 l 0.107039,0.0324 0.02313,-0.0252 c 0.02619,-0.0282 0.06596,-0.0766 0.184849,-0.22652 0.04505,-0.057 0.126286,-0.15829 0.179398,-0.22483 0.05307,-0.0665 0.0979,-0.12449 0.09768,-0.1284 4.04e-4,-0.005 0.0062,-0.0103 0.01211,-0.0122 0.0067,-0.002 0.01669,-0.0137 0.02429,-0.0245 0.0073,-0.0117 0.06123,-0.082 0.120201,-0.15539 0.173481,-0.215 0.379765,-0.47518 0.385682,-0.48501 0.0036,-0.005 -0.01314,-0.007 -0.03615,-0.004 z m 0.717507,2.50694 c -0.05816,-0.0168 -0.111234,-0.0331 -0.117823,-0.0351 -0.0063,-0.003 -0.103058,-0.0327 -0.215211,-0.0656 -0.112092,-0.0328 -0.20833,-0.0627 -0.214925,-0.0646 -0.006,-0.002 -0.1247,-0.038 -0.264394,-0.0792 -0.138793,-0.0415 -0.255697,-0.0769 -0.259281,-0.0788 -0.0038,-0.002 -0.01888,-0.006 -0.03478,-0.009 -0.01602,-0.003 -0.03996,-0.01 -0.05215,-0.0167 -0.013,-0.006 -0.02602,-0.01 -0.02879,-0.009 -0.0029,9e-4 -0.06093,-0.0159 -0.130722,-0.0381 -0.06863,-0.0215 -0.132205,-0.0396 -0.139133,-0.0394 -0.01513,-4.8e-4 -0.036,0.0223 -0.17274,0.19178 -0.04696,0.0576 -0.08984,0.11199 -0.09661,0.11905 -0.0058,0.008 -0.111735,0.13777 -0.235178,0.2892 -0.123436,0.15141 -0.251489,0.30726 -0.284184,0.34643 -0.03357,0.0394 -0.06014,0.0728 -0.05957,0.0746 5.97e-4,0.002 0.03615,0.004 0.07955,0.005 0.04244,0.002 0.08499,0.003 0.0931,0.004 0.0085,4.6e-4 0.01992,2e-5 0.02509,4.8e-4 0.006,-8.6e-4 0.04349,-0.002 0.08414,-0.002 0.04045,-0.002 0.08118,-0.002 0.08899,-0.003 0.0079,-10e-4 0.03424,-0.002 0.05885,-0.003 0.05608,-0.003 0.0788,-0.004 0.102341,-0.008 0.01061,-10e-4 0.01931,-0.002 0.01992,2e-5 2.89e-4,9.2e-4 0.0095,1.5e-4 0.01961,-9.4e-4 0.01031,-0.002 0.09647,-0.0142 0.191326,-0.0269 0.161074,-0.0214 0.199199,-0.0272 0.295114,-0.0463 0.05091,-0.01 0.144374,-0.0301 0.233401,-0.052 0.04085,-0.01 0.08689,-0.019 0.102275,-0.021 0.02152,-0.002 0.0255,-0.005 0.01604,-0.0124 -0.0089,-0.008 -0.0082,-0.009 0.0061,-0.004 0.0204,0.008 0.420929,-0.11654 0.433906,-0.13573 0.0058,-0.008 0.0091,-0.009 0.01147,-0.002 0.0021,0.007 0.0075,0.007 0.01181,0.003 0.0036,-0.005 0.03033,-0.0179 0.05826,-0.0278 0.135495,-0.0521 0.267645,-0.10859 0.375965,-0.1614 0.03368,-0.0169 0.0694,-0.0337 0.07973,-0.0389 0.01027,-0.005 0.02121,-0.0119 0.02213,-0.0154 0.002,-0.004 -0.04422,-0.0201 -0.103333,-0.0366 z m -2.213757,-0.6643 c -0.01164,-0.004 -0.162103,-0.0522 -0.336494,-0.10855 -0.174395,-0.0564 -0.336493,-0.10855 -0.361056,-0.11685 -0.02459,-0.008 -0.05998,-0.0193 -0.07855,-0.0244 -0.03241,-0.008 -0.04125,-0.02 -0.184502,-0.23892 -0.08235,-0.12606 -0.151755,-0.23319 -0.154419,-0.23835 -0.02311,-0.0387 -0.216863,-0.32967 -0.22192,-0.33308 -0.0038,-0.002 0.02665,0.10551 0.06792,0.23741 0.04031,0.13221 0.126469,0.41484 0.191137,0.6283 0.24102,0.80145 0.568298,1.86353 0.576012,1.87011 0.0047,0.005 0.0069,-0.10901 0.0057,-0.25042 -0.0022,-0.14111 -0.005,-0.35793 -0.0066,-0.48126 -0.0022,-0.18605 3.71e-4,-0.22879 0.01626,-0.25473 0.0097,-0.017 0.128101,-0.17484 0.262579,-0.35167 0.134478,-0.17683 0.243651,-0.3228 0.243707,-0.3258 -8.96e-4,-0.003 -0.01079,-0.008 -0.02058,-0.0115 z"
       inkscape:connector-curvature="0"
       style="stroke-width:0.00953136" />
  </g>
</svg>
