<?xml version="1.0" encoding="UTF-8" standalone="no"?>
<svg
   xmlns:dc="http://purl.org/dc/elements/1.1/"
   xmlns:cc="http://creativecommons.org/ns#"
   xmlns:rdf="http://www.w3.org/1999/02/22-rdf-syntax-ns#"
   xmlns:svg="http://www.w3.org/2000/svg"
   xmlns="http://www.w3.org/2000/svg"
   xmlns:sodipodi="http://sodipodi.sourceforge.net/DTD/sodipodi-0.dtd"
   xmlns:inkscape="http://www.inkscape.org/namespaces/inkscape"
   sodipodi:docname="yt.svg"
   inkscape:version="1.0 (4035a4fb49, 2020-05-01)"
   id="svg8"
   version="1.1"
   viewBox="0 0 3.96875 3.96875"
   height="15"
   width="15">
  <defs
     id="defs2">
    <clipPath
       clipPathUnits="userSpaceOnUse"
       id="clipPath851">
      <path
         d="M 0,255.118 H 550.024 V 0 H 0 Z"
         id="path849" />
    </clipPath>
  </defs>
  <sodipodi:namedview
     inkscape:window-maximized="1"
     inkscape:window-y="-9"
     inkscape:window-x="-9"
     inkscape:window-height="1001"
     inkscape:window-width="1920"
     units="px"
     showgrid="false"
     inkscape:document-rotation="0"
     inkscape:current-layer="g847"
     inkscape:document-units="mm"
     inkscape:cy="4.027093"
     inkscape:cx="10.278818"
     inkscape:zoom="22.4"
     inkscape:pageshadow="2"
     inkscape:pageopacity="0.0"
     borderopacity="1.0"
     bordercolor="#666666"
     pagecolor="#ffffff"
     id="base" />
  <metadata
     id="metadata5">
    <rdf:RDF>
      <cc:Work
         rdf:about="">
        <dc:format>image/svg+xml</dc:format>
        <dc:type
           rdf:resource="http://purl.org/dc/dcmitype/StillImage" />
        <dc:title></dc:title>
      </cc:Work>
    </rdf:RDF>
  </metadata>
  <g
     id="layer1"
     inkscape:groupmode="layer"
     inkscape:label="Livello 1">
    <circle
       r="1.9755161"
       cy="1.9814219"
       cx="1.9755161"
       id="path833"
       style="fill:#df2a2a;stroke-width:0.362727" />
    <g
       id="g847"
       clip-path="url(#clipPath851)"
       transform="matrix(0.02277659,0,0,-0.02277659,-1.253273,4.9024393)">
      <g
         id="g853"
         transform="translate(128.99506,109.3407)">
        <path
           d="M 0,0 V 36.445 L 31.561,18.222 Z m 70.352,47.463 c -1.397,5.227 -5.514,9.343 -10.741,10.741 -9.473,2.538 -47.463,2.538 -47.463,2.538 0,0 -37.989,0 -47.463,-2.538 -5.227,-1.398 -9.343,-5.514 -10.741,-10.741 -2.538,-9.474 -2.538,-29.241 -2.538,-29.241 0,0 0,-19.766 2.538,-29.241 1.398,-5.226 5.514,-9.342 10.741,-10.74 9.474,-2.539 47.463,-2.539 47.463,-2.539 0,0 37.99,0 47.463,2.539 5.227,1.398 9.344,5.514 10.741,10.74 2.539,9.475 2.539,29.241 2.539,29.241 0,0 0,19.767 -2.539,29.241"
           style="fill:#ffffff;fill-opacity:1;fill-rule:nonzero;stroke:none"
           id="path855" />
      </g>
    </g>
  </g>
</svg>
