<svg version="1" xmlns="http://www.w3.org/2000/svg" width="800" height="800" viewBox="0 0 600.000000 600.000000"><path d="M278.1 39.1c-4.6 1-9 2.4-9.7 3-.8.6-1.4.9-1.4.5 0-.7-17.9 8.4-20.1 10.2-.8.6-4.1 3.2-7.4 5.8-19.2 14.9-37.6 39.3-51.1 67.4-10.3 21.5-13.4 28.6-13.4 30.8 0 1-.4 2.2-.9 2.7-2.6 2.8-16.6 52.7-17.6 62.5 0 .9-.4 2.1-.9 2.8-.4.6-.4 1.6-.1 2.2.4.6 15.3 1 41.6 1H238l7 10.7c3.9 6 7.5 11.5 8.1 12.3 6.4 9.6 21.9 33.3 21.9 33.5 0 .1 3.4 5.3 7.5 11.4 4.1 6.2 7.5 11.6 7.5 12.1s.3 1 .8 1.2c.4.1 2.1 2.5 3.8 5.1l3.1 4.8 2.6-3.3c6.6-8.5 9.7-12.9 9.7-13.8 0-.6.3-1 .8-1 .4 0 2.3-2.4 4.2-5.2 1.9-2.9 4.1-5.9 4.7-6.8.7-.8 11-14.8 22.8-31l21.5-29.5 36.3-.5c31.4-.4 36.2-.7 36-2-.7-4-4.4-20.6-6.8-30-1.5-5.8-2.8-11-2.9-11.5-.1-.6-.5-1.5-.8-2.1-.4-.6-.9-2.1-1.2-3.5-1.4-7.4-12.8-36.3-20.6-52.3-6.8-13.8-7.1-14.3-16.5-28.6-9.1-13.8-12.1-17.5-23-28.5-26.5-26.8-55.7-37-86.4-30.4zM159.5 252.2c-.4 2.3-.9 5-1 5.8-.7 4.2-1.5 10.2-2 16-.4 3.6-.8 7.2-1 8-2 7.5-2.9 86.8-1.2 101.5.5 3.8 1 9 1.2 11.5.5 5.5 1.2 11.1 2.6 21 .6 4.1 1.2 8.4 1.4 9.5.2 1.7 1.2 7.3 3 16.5.3 1.4.7 3.6 1 5 .3 1.4.7 3.4.9 4.5.3 1.6 3.4 14.6 5.1 21.5.2.8 1.3 4.6 2.5 8.5 1.2 3.8 2.3 7.7 2.5 8.5.2.8.4 1.6.5 1.7.2.2.3.6.5 1 .1.5.4 1.5.8 2.3.3.8 1.2 3.5 2 6 .7 2.5 1.8 4.5 2.4 4.5.6 0 5.7-7 11.3-15.5 5.6-8.5 14.7-22.3 20.1-30.5 5.4-8.3 10.2-15.5 10.6-16 .4-.6 5.1-7.5 10.3-15.5 5.2-8 9.8-14.7 10.3-14.8.4-.2.7-.8.7-1.3 0-.4 3-5.2 6.6-10.5l6.6-9.7-1.8-3.1c-2-3.5-5.6-9-16.9-25.6-4.3-6.3-11.9-17.6-16.9-25-5-7.4-9.4-13.7-9.8-13.8-.5-.2-.8-.9-.8-1.6 0-.7-.8-2.1-1.7-3.2-1-1.1-6.3-8.7-11.8-16.9-16.1-24.1-35.7-52.9-36.5-53.8-.4-.5-1.1 1.1-1.5 3.5zM433 258.8c-3.5 5.3-6.8 10.1-7.2 10.7-.5.5-6.5 9.3-13.3 19.5-6.8 10.2-12.8 18.9-13.2 19.5-.4.5-7.7 11.3-16.2 24-8.5 12.6-15.7 23.2-16 23.5-.3.3-1.2 1.7-2 3.2-.8 1.5-2.2 3.7-3.3 4.7-1 1.1-1.8 2.3-1.8 2.6 0 .3-3.5 5.6-7.9 11.9-4.3 6.2-8.1 12-8.3 12.7-.5 1.5 1.1 4.3 13.8 23.3 4.3 6.5 8.4 12.5 8.9 13.4.6.8 10.3 15.5 21.6 32.6s22.9 34.8 25.8 39.3c2.9 4.6 5.4 8.3 5.6 8.3.2 0 1.5-3.5 3-7.8 1.5-4.2 3-8.4 3.3-9.2.3-.8.6-2 .8-2.5.1-.6 1.2-4.4 2.4-8.5 1.1-4.1 2.3-8.2 2.5-9 .1-.8.8-3.5 1.5-6 1.5-5.7 2.1-8 2.4-10.5.2-1.1.4-2 .6-2 .1 0 .3-.9.5-2 .1-1.1 1.6-10.1 3.3-20 2.9-16.8 3.5-20.8 4.6-31 .6-5.4 1.5-15.4 2.1-25 .3-4.4.8-9.3 1.1-10.9.5-2.2.3-2.7-.7-2-1.1.6-1.2.5-.2-.7 1.4-1.8 1.5-45.8 0-47.7-.6-.8-.6-1.2.2-1.2.7 0 .9-.5.6-1.1-.4-.5-.8-3.6-1-6.7-1-15.2-2.5-30.2-4.4-42.7-.6-3.9-1.2-8-1.4-9.2-.2-1.2-.5-2.5-.8-2.7-.3-.3-3.4 3.8-6.9 9.2zM297.2 459.7c-.7 1-10.3 14.6-21.4 30.3-11.1 15.7-21.4 30.3-23 32.5-1.6 2.2-3.8 5.4-4.9 7.1-1.8 3-3.3 3.5-29.7 11-15.2 4.3-28.1 7.9-28.7 8-4.6 1.1-39.8 11.4-40.3 11.8-.3.3 11.4.6 25.9.6 14.5.1 45.5.3 68.9.5 87.8.9 204.4 1.4 205.3.8.6-.3-10.7-4.1-24.9-8.4-14.2-4.2-36-10.7-48.4-14.4-18.7-5.6-22.9-7.2-25-9.6-1.4-1.5-13.5-18.3-27-37.3-13.5-19-24.7-34.5-25-34.6-.3 0-1.1.8-1.8 1.7z"/></svg>