<?xml version="1.0" standalone="no"?>
<!DOCTYPE svg PUBLIC "-//W3C//DTD SVG 20010904//EN"
 "http://www.w3.org/TR/2001/REC-SVG-20010904/DTD/svg10.dtd">
<svg version="1.0" xmlns="http://www.w3.org/2000/svg"
 width="300.000000pt" height="122.000000pt" viewBox="0 0 300.000000 122.000000"
 preserveAspectRatio="xMidYMid meet" style="fill: #FFF;">
<g transform="translate(0.000000,122.000000) scale(0.100000,-0.100000)" stroke="none">
<path d="M838 1183 l-28 -4 0 -280 0 -279 45 0 45 0 -6 113 c-6 102 -5 114 13
136 35 43 43 20 43 -119 l0 -128 26 -6 c14 -4 34 -4 45 -1 18 6 19 17 19 163
0 129 -3 163 -18 192 -23 46 -57 51 -102 13 l-33 -28 6 118 c7 129 11 120 -55
110z"/>
<path d="M630 1070 c0 -47 -4 -80 -10 -80 -5 0 -10 -25 -10 -55 0 -30 4 -55 9
-55 5 0 11 -51 13 -114 3 -130 16 -156 73 -156 45 0 65 26 65 84 0 42 -2 47
-19 41 -28 -9 -43 25 -39 88 3 48 5 52 31 55 26 3 27 5 27 62 0 57 -1 59 -27
62 -27 3 -28 5 -28 62 0 59 -1 60 -35 72 -19 7 -38 13 -42 13 -5 1 -8 -35 -8
-79z"/>
<path d="M1340 1072 c0 -87 -8 -100 -51 -76 -32 18 -59 17 -59 -1 0 -8 -4 -15
-9 -15 -5 0 -14 7 -21 15 -15 18 -59 19 -81 2 -40 -30 -54 -79 -54 -187 0 -89
3 -111 22 -146 31 -58 74 -72 109 -33 l18 20 8 -22 c6 -16 14 -20 31 -15 12 3
30 6 40 6 16 0 17 12 13 158 -3 86 -2 145 0 130 3 -16 11 -28 19 -28 10 0 14
-27 17 -114 3 -126 16 -156 67 -156 49 0 71 25 71 81 0 45 -2 50 -19 44 -28
-9 -43 25 -39 88 3 48 5 52 31 55 26 3 27 5 27 63 l0 59 -31 0 -31 0 4 61 c5
65 7 63 -59 83 -23 7 -23 6 -23 -72z m-138 -199 c25 -23 25 -104 -1 -127 -25
-22 -48 -11 -61 30 -13 40 -7 75 16 98 19 20 23 20 46 -1z"/>
<path d="M2183 1135 c-88 -38 -180 -189 -217 -357 l-6 -28 85 0 84 0 62 -92
c34 -51 65 -97 69 -101 4 -5 38 34 75 85 38 51 73 96 79 100 6 4 41 8 79 8 37
0 67 3 67 6 0 23 -36 138 -59 188 -63 135 -144 206 -235 206 -28 -1 -66 -7
-83 -15z"/>
<path d="M1965 680 c-12 -19 -8 -311 4 -377 6 -34 19 -85 27 -114 l16 -52 79
122 c43 67 79 126 79 132 0 9 -142 227 -181 277 -11 14 -20 19 -24 12z"/>
<path d="M2468 544 c-54 -79 -98 -149 -98 -156 0 -7 36 -66 79 -131 l79 -119
15 49 c9 26 21 75 29 108 15 71 17 370 3 384 -6 6 -45 -43 -107 -135z"/>
<path d="M400 285 l0 -225 25 0 c25 0 25 0 25 95 0 73 3 95 13 95 23 0 47 -35
77 -112 24 -62 32 -73 54 -76 16 -2 26 2 26 10 0 17 -50 149 -62 165 -7 9 -2
22 15 43 36 42 44 108 22 166 -20 54 -41 64 -131 64 l-64 0 0 -225z m152 119
c10 -21 9 -31 -3 -52 -12 -22 -23 -28 -57 -30 l-42 -3 0 55 0 56 45 0 c39 0
47 -4 57 -26z"/>
<path d="M697 480 c-38 -45 -51 -96 -52 -195 0 -148 43 -225 126 -225 29 0 44
7 64 27 39 43 50 88 49 203 0 87 -4 112 -22 147 -27 52 -56 73 -103 73 -29 0
-43 -7 -62 -30z m111 -65 c42 -53 40 -213 -2 -262 -30 -34 -69 -26 -93 20 -24
44 -24 179 0 224 26 50 65 57 95 18z"/>
<path d="M970 480 c-15 -16 -33 -50 -39 -74 -14 -57 -14 -189 0 -241 14 -50
68 -105 104 -105 35 0 80 46 94 96 10 35 9 41 -11 57 -22 19 -23 18 -32 -10
-13 -40 -35 -63 -63 -63 -35 0 -53 51 -52 147 1 100 9 124 42 143 27 14 29 14
53 -13 13 -15 24 -34 24 -41 0 -9 9 -12 25 -8 28 5 30 12 11 65 -21 58 -43 77
-89 77 -30 0 -45 -6 -67 -30z"/>
<path d="M1180 285 l0 -225 25 0 c24 0 25 2 25 65 0 46 6 78 20 105 11 22 22
40 24 40 2 0 18 -47 37 -105 l34 -105 34 0 c28 0 32 3 26 18 -4 9 -27 72 -51
139 l-45 122 46 80 c25 44 45 83 45 86 0 3 -15 5 -32 5 -31 0 -36 -5 -83 -93
l-50 -92 -3 93 c-3 90 -3 92 -27 92 l-25 0 0 -225z"/>
<path d="M1450 285 l0 -225 96 0 95 0 -3 38 -3 37 -73 3 -73 3 3 57 3 57 63 3
62 3 0 34 0 34 -62 3 -63 3 -3 48 -3 47 70 0 71 0 0 40 0 40 -90 0 -90 0 0
-225z"/>
<path d="M1660 470 c0 -39 1 -40 35 -40 l35 0 0 -185 0 -185 25 0 25 0 0 185
0 185 40 0 c40 0 40 0 40 40 l0 40 -100 0 -100 0 0 -40z"/>
<path d="M2207 161 l-56 -78 -83 -23 c-46 -12 -90 -26 -98 -31 -9 -5 118 -8
300 -8 l315 1 -90 29 c-49 16 -94 29 -100 29 -5 0 -35 36 -65 80 -30 44 -58
79 -62 80 -3 0 -31 -35 -61 -79z"/>
</g>
</svg>
